<?xml version="1.0" encoding="UTF-8" standalone="no"?>
<!-- Created with Inkscape (http://www.inkscape.org/) -->

<svg
   width="29.719999mm"
   height="29.719999mm"
   viewBox="0 0 29.719999 29.719998"
   version="1.1"
   id="svg1"
   xml:space="preserve"
   inkscape:version="1.4.2 (ebf0e940d0, 2025-05-08)"
   sodipodi:docname="favicon.svg"
   inkscape:export-filename="faviconpng"
   inkscape:export-xdpi="41.022884"
   inkscape:export-ydpi="41.022884"
   xmlns:inkscape="http://www.inkscape.org/namespaces/inkscape"
   xmlns:sodipodi="http://sodipodi.sourceforge.net/DTD/sodipodi-0.dtd"
   xmlns="http://www.w3.org/2000/svg"
   xmlns:svg="http://www.w3.org/2000/svg"><sodipodi:namedview
     id="namedview1"
     pagecolor="#ffffff"
     bordercolor="#000000"
     borderopacity="0.25"
     inkscape:showpageshadow="2"
     inkscape:pageopacity="0.0"
     inkscape:pagecheckerboard="0"
     inkscape:deskcolor="#d1d1d1"
     inkscape:document-units="mm"
     inkscape:zoom="1.8249602"
     inkscape:cx="278.08826"
     inkscape:cy="31.781515"
     inkscape:window-width="2048"
     inkscape:window-height="1086"
     inkscape:window-x="0"
     inkscape:window-y="0"
     inkscape:window-maximized="1"
     inkscape:current-layer="layer1" /><defs
     id="defs1" /><g
     inkscape:label="Layer 1"
     inkscape:groupmode="layer"
     id="layer1"
     transform="translate(-141.60633,-44.142791)"><path
       style="font-size:34.4728px;line-height:0.8;font-family:Calibri;-inkscape-font-specification:'Calibri, Normal';stroke-width:1;stroke-dasharray:1, 1"
       d="m 156.13273,68.430662 c 0,0.08112 -0.0168,0.152112 -0.0505,0.212956 -0.0337,0.06085 -0.10661,0.11155 -0.21882,0.152114 -0.11222,0.04057 -0.26932,0.07098 -0.47131,0.09127 -0.20199,0.02028 -0.47131,0.03042 -0.80796,0.03042 -0.29176,0 -0.53302,-0.01014 -0.72379,-0.03042 -0.17955,-0.02028 -0.32543,-0.0507 -0.43764,-0.09127 -0.11222,-0.05071 -0.20199,-0.116619 -0.26932,-0.197747 -0.0561,-0.08112 -0.10663,-0.182535 -0.1515,-0.304225 l -2.00305,-4.639432 c -0.23565,-0.527324 -0.48253,-1.009014 -0.74063,-1.445069 -0.24687,-0.446197 -0.54425,-0.826479 -0.89212,-1.140845 -0.34787,-0.324506 -0.75746,-0.572957 -1.22877,-0.745351 -0.47131,-0.182535 -1.038,-0.273802 -1.70007,-0.273802 h -1.93573 v 8.381401 c 0,0.08112 -0.0281,0.152112 -0.0842,0.212956 -0.0449,0.06085 -0.12342,0.11155 -0.23565,0.152114 -0.101,0.03043 -0.24688,0.05577 -0.43765,0.07605 -0.17955,0.03043 -0.40959,0.04564 -0.69013,0.04564 -0.28054,0 -0.51619,-0.01521 -0.70696,-0.04564 -0.17955,-0.02028 -0.32543,-0.04563 -0.43764,-0.07605 -0.11222,-0.04057 -0.19077,-0.09127 -0.23566,-0.152114 -0.0449,-0.06084 -0.0673,-0.13183 -0.0673,-0.212956 V 50.207579 c 0,-0.395493 0.11222,-0.669295 0.33665,-0.821407 0.23565,-0.162254 0.48253,-0.243381 0.74063,-0.243381 h 4.62892 c 0.54985,0 1.00433,0.01521 1.36342,0.04564 0.37031,0.02028 0.70135,0.04563 0.99312,0.07605 0.84162,0.131831 1.58225,0.339719 2.22188,0.623662 0.65085,0.283943 1.1951,0.643943 1.63274,1.079999 0.43764,0.436056 0.76307,0.938027 0.97628,1.505913 0.22443,0.557747 0.33665,1.176338 0.33665,1.855774 0,0.659154 -0.10099,1.252393 -0.30298,1.779716 -0.19077,0.517183 -0.47132,0.978591 -0.84163,1.384225 -0.37031,0.395492 -0.81357,0.74028 -1.32976,1.034364 -0.51619,0.294085 -1.09411,0.542536 -1.73374,0.745352 0.35909,0.141972 0.68452,0.324507 0.97628,0.547605 0.29177,0.212958 0.56109,0.471549 0.80796,0.775774 0.2581,0.304226 0.49936,0.654084 0.72379,1.049577 0.22443,0.395492 0.44887,0.841689 0.6733,1.33859 l 1.95256,4.335208 c 0.15711,0.36507 0.2581,0.623661 0.30299,0.775773 0.0449,0.141972 0.0673,0.253522 0.0673,0.334648 z m -4.3596,-13.827031 c 0,0.770704 -0.19077,-1.419717 -0.5723,-1.94704 -0.38154,-0.537464 -1.02117,-0.922817 -1.9189,-1.156056 -0.28054,-0.07098 -0.60036,-0.121689 -0.95945,-0.152112 -0.34787,-0.03043 -0.80795,-0.04564 -1.38026,-0.04564 h -2.4407 v 6.632106 h 2.82785 c 0.76307,0 1.41953,-0.08112 1.96939,-0.24338 0.56108,-0.172394 1.02678,-0.405633 1.39709,-0.699717 0.37031,-0.304226 0.63963,-0.659155 0.80796,-1.064788 0.17955,-0.405634 0.26932,-1.799999 0.26932,-1.32338 z m 19.55318,6.324927 c 0,0.395493 -0.11221,0.679437 -0.33664,0.85183 -0.21321,0.162254 -0.46009,0.243381 -0.74063,0.243381 h -9.93113 c 0,0.760562 0.0842,1.445069 0.25249,2.053519 0.16832,0.60845 0.44886,1.130703 0.84162,1.566759 0.39275,0.436055 0.90334,0.770703 1.53175,1.003943 0.62841,0.233239 1.39709,0.349859 2.30604,0.349859 0.71819,0 1.35782,-0.05071 1.9189,-0.152113 0.56108,-0.111549 1.04361,-0.233239 1.44758,-0.36507 0.4152,-0.131831 0.75185,-0.248451 1.00995,-0.349859 0.26932,-0.111549 0.47131,-0.167324 0.60597,-0.167324 0.0785,0 0.14588,0.02028 0.20199,0.06085 0.0673,0.03043 0.11782,0.08112 0.15149,0.152113 0.0337,0.07098 0.0561,0.172394 0.0673,0.304225 0.0225,0.12169 0.0337,0.273802 0.0337,0.456337 0,0.131831 -0.006,0.248451 -0.0168,0.349859 -0.0112,0.09127 -0.028,0.177465 -0.0505,0.258592 -0.0112,0.07098 -0.0393,0.136901 -0.0842,0.197746 -0.0337,0.06085 -0.0842,0.12169 -0.15149,0.182535 -0.0561,0.05071 -0.23568,0.141971 -0.53864,0.273802 -0.30298,0.12169 -0.69574,0.243381 -1.17827,0.36507 -0.48253,0.12169 -1.04361,0.228169 -1.68324,0.319437 -0.62841,0.101409 -1.30171,0.152113 -2.01989,0.152113 -1.2456,0 -2.33971,-0.157183 -3.28232,-0.47155 -0.93139,-0.314366 -1.71691,-0.780844 -2.35654,-1.399434 -0.63963,-0.618592 -1.12216,-1.394365 -1.44759,-2.327322 -0.32543,-0.932958 -0.48814,-2.018026 -0.48814,-3.255208 0,-1.176337 0.16832,-2.230984 0.50497,-3.163941 0.33665,-0.943099 0.81918,-1.739155 1.44759,-2.388168 0.63963,-0.659154 1.40831,-1.161126 2.30604,-1.505914 0.89773,-0.354929 1.90207,-0.532393 3.01301,-0.532393 1.18949,0 2.19943,0.172394 3.02983,0.517182 0.84162,0.344789 1.53175,0.811267 2.07039,1.399436 0.53864,0.578027 0.9314,1.262534 1.17827,2.053519 0.25809,0.780845 0.38714,1.617463 0.38714,2.509857 z m -2.79418,-0.745351 c 0.0337,-1.318309 -0.29176,-2.352674 -0.97628,-3.103096 -0.67329,-0.750422 -1.67763,-1.125633 -3.013,-1.125633 -0.68452,0 -1.28488,0.11662 -1.80107,0.349859 -0.51619,0.233239 -0.94823,0.542535 -1.2961,0.927887 -0.34787,0.385351 -0.61718,0.836619 -0.80795,1.353801 -0.19077,0.507042 -0.29737,1.039436 -0.31982,1.597182 z"
       id="text19"
       aria-label="ReMeta"
       sodipodi:nodetypes="cssssccccccccscscccsccssscsscccscsccscccscccccscccsccscccssscsccssscccscccscccscscscssscccscccssccsssccc" /><path
       style="fill:none;fill-opacity:1;stroke:#ffffff;stroke-width:2.50117;stroke-dasharray:none;stroke-opacity:1"
       id="path25"
       d="m 167.44001,38.584381 a 4.4952226,7.3454909 0 0 1 -0.32091,-3.11675"
       sodipodi:type="arc"
       sodipodi:arc-type="arc"
       sodipodi:start="2.7580748"
       sodipodi:end="3.1917365"
       sodipodi:ry="7.3454909"
       sodipodi:rx="4.4952226"
       sodipodi:cy="35.835808"
       sodipodi:cx="171.60867"
       transform="matrix(0.98915339,0.14688628,-0.10405937,0.99457109,0,0)"
       sodipodi:open="true" /><path
       sodipodi:type="star"
       style="fill:#050000;fill-opacity:1;stroke:none;stroke-width:4.50303;stroke-dasharray:none;stroke-opacity:1"
       id="path26"
       inkscape:flatsided="true"
       sodipodi:sides="3"
       sodipodi:cx="238.01851"
       sodipodi:cy="79.894936"
       sodipodi:r1="12.594174"
       sodipodi:r2="6.2970867"
       sodipodi:arg1="3.1415927"
       sodipodi:arg2="4.1887902"
       inkscape:rounded="0"
       inkscape:randomized="0"
       d="m 225.42433,79.894935 18.89127,-10.906874 0,21.81375 z"
       inkscape:transform-center-x="0.5102719"
       transform="matrix(0.16206567,0,0,0.19475235,124.70419,45.56728)" /></g></svg>
