<?xml version="1.0" encoding="UTF-8" standalone="no"?>
<!-- Created with Inkscape (http://www.inkscape.org/) -->

<svg
   width="147.14777mm"
   height="19.972382mm"
   viewBox="0 0 147.14777 19.972381"
   version="1.1"
   id="svg1"
   xml:space="preserve"
   inkscape:version="1.4.2 (ebf0e940d0, 2025-05-08)"
   sodipodi:docname="logo_api.svg"
   inkscape:export-filename="logo.png"
   inkscape:export-xdpi="96"
   inkscape:export-ydpi="96"
   xmlns:inkscape="http://www.inkscape.org/namespaces/inkscape"
   xmlns:sodipodi="http://sodipodi.sourceforge.net/DTD/sodipodi-0.dtd"
   xmlns="http://www.w3.org/2000/svg"
   xmlns:svg="http://www.w3.org/2000/svg"><sodipodi:namedview
     id="namedview1"
     pagecolor="#ffffff"
     bordercolor="#000000"
     borderopacity="0.25"
     inkscape:showpageshadow="2"
     inkscape:pageopacity="0.0"
     inkscape:pagecheckerboard="0"
     inkscape:deskcolor="#d1d1d1"
     inkscape:document-units="mm"
     inkscape:zoom="0.64522087"
     inkscape:cx="481.23056"
     inkscape:cy="102.29055"
     inkscape:window-width="2048"
     inkscape:window-height="1086"
     inkscape:window-x="0"
     inkscape:window-y="0"
     inkscape:window-maximized="1"
     inkscape:current-layer="layer1" /><defs
     id="defs1" /><g
     inkscape:label="Layer 1"
     inkscape:groupmode="layer"
     id="layer1"
     transform="translate(-141.60633,-44.142791)"><path
       style="font-size:34.4728px;line-height:0.8;font-family:Calibri;-inkscape-font-specification:'Calibri, Normal';stroke-width:1;stroke-dasharray:1, 1"
       d="m 156.13273,63.430662 c 0,0.08112 -0.0168,0.152112 -0.0505,0.212956 -0.0337,0.06085 -0.10661,0.11155 -0.21882,0.152114 -0.11222,0.04057 -0.26932,0.07098 -0.47131,0.09127 -0.20199,0.02028 -0.47131,0.03042 -0.80796,0.03042 -0.29176,0 -0.53302,-0.01014 -0.72379,-0.03042 -0.17955,-0.02028 -0.32543,-0.0507 -0.43764,-0.09127 -0.11222,-0.05071 -0.20199,-0.116619 -0.26932,-0.197747 -0.0561,-0.08112 -0.10663,-0.182535 -0.1515,-0.304225 l -2.00305,-4.639432 c -0.23565,-0.527324 -0.48253,-1.009014 -0.74063,-1.445069 -0.24687,-0.446197 -0.54425,-0.826479 -0.89212,-1.140845 -0.34787,-0.324506 -0.75746,-0.572957 -1.22877,-0.745351 -0.47131,-0.182535 -1.038,-0.273802 -1.70007,-0.273802 h -1.93573 v 8.381401 c 0,0.08112 -0.0281,0.152112 -0.0842,0.212956 -0.0449,0.06085 -0.12342,0.11155 -0.23565,0.152114 -0.101,0.03043 -0.24688,0.05577 -0.43765,0.07605 -0.17955,0.03043 -0.40959,0.04564 -0.69013,0.04564 -0.28054,0 -0.51619,-0.01521 -0.70696,-0.04564 -0.17955,-0.02028 -0.32543,-0.04563 -0.43764,-0.07605 -0.11222,-0.04057 -0.19077,-0.09127 -0.23566,-0.152114 -0.0449,-0.06084 -0.0673,-0.13183 -0.0673,-0.212956 V 45.207579 c 0,-0.395493 0.11222,-0.669295 0.33665,-0.821407 0.23565,-0.162254 0.48253,-0.243381 0.74063,-0.243381 h 4.62892 c 0.54985,0 1.00433,0.01521 1.36342,0.04564 0.37031,0.02028 0.70135,0.04563 0.99312,0.07605 0.84162,0.131831 1.58225,0.339719 2.22188,0.623662 0.65085,0.283943 1.1951,0.643943 1.63274,1.079999 0.43764,0.436056 0.76307,0.938027 0.97628,1.505913 0.22443,0.557747 0.33665,1.176338 0.33665,1.855774 0,0.659154 -0.10099,1.252393 -0.30298,1.779716 -0.19077,0.517183 -0.47132,0.978591 -0.84163,1.384225 -0.37031,0.395492 -0.81357,0.74028 -1.32976,1.034364 -0.51619,0.294085 -1.09411,0.542536 -1.73374,0.745352 0.35909,0.141972 0.68452,0.324507 0.97628,0.547605 0.29177,0.212958 0.56109,0.471549 0.80796,0.775774 0.2581,0.304226 0.49936,0.654084 0.72379,1.049577 0.22443,0.395492 0.44887,0.841689 0.6733,1.33859 l 1.95256,4.335208 c 0.15711,0.36507 0.2581,0.623661 0.30299,0.775773 0.0449,0.141972 0.0673,0.253522 0.0673,0.334648 z m -4.3596,-13.827031 c 0,0.770704 -0.19077,-1.419717 -0.5723,-1.94704 -0.38154,-0.537464 -1.02117,-0.922817 -1.9189,-1.156056 -0.28054,-0.07098 -0.60036,-0.121689 -0.95945,-0.152112 -0.34787,-0.03043 -0.80795,-0.04564 -1.38026,-0.04564 h -2.4407 v 6.632106 h 2.82785 c 0.76307,0 1.41953,-0.08112 1.96939,-0.24338 0.56108,-0.172394 1.02678,-0.405633 1.39709,-0.699717 0.37031,-0.304226 0.63963,-0.659155 0.80796,-1.064788 0.17955,-0.405634 0.26932,-1.799999 0.26932,-1.32338 z m 44.01785,13.827031 c 0,0.08112 -0.0224,0.152112 -0.0673,0.212956 -0.0449,0.06085 -0.12342,0.11155 -0.23566,0.152114 -0.11221,0.03043 -0.25809,0.05577 -0.43764,0.07605 -0.16833,0.03043 -0.39276,0.04564 -0.6733,0.04564 -0.25809,0 -0.48252,-0.01521 -0.67329,-0.04564 -0.17955,-0.02028 -0.32543,-0.04563 -0.43765,-0.07605 -0.10099,-0.04057 -0.17393,-0.09127 -0.21882,-0.152114 -0.0449,-0.06084 -0.0673,-0.13183 -0.0673,-0.212956 V 46.287578 h -0.0337 l -6.70143,17.21914 c -0.0337,0.07098 -0.0842,0.131831 -0.15149,0.182535 -0.0561,0.05071 -0.14591,0.09634 -0.26932,0.1369 -0.11221,0.03043 -0.25248,0.05071 -0.42081,0.06085 -0.1571,0.02028 -0.34787,0.03042 -0.5723,0.03042 -0.23565,0 -0.43764,-0.01014 -0.60597,-0.03042 -0.16833,-0.02028 -0.3086,-0.04563 -0.42081,-0.07606 -0.11221,-0.04057 -0.20199,-0.08619 -0.26932,-0.136901 -0.0561,-0.05071 -0.0954,-0.106477 -0.11783,-0.167323 l -6.36476,-17.21914 h -0.0168 v 17.143083 c 0,0.08112 -0.0224,0.152113 -0.0673,0.212957 -0.0449,0.06085 -0.12342,0.111549 -0.23565,0.152113 -0.11221,0.03043 -0.25809,0.05578 -0.43764,0.07606 -0.17955,0.03043 -0.40959,0.04564 -0.69013,0.04564 -0.26932,0 -0.49375,-0.01521 -0.6733,-0.04564 -0.17955,-0.02028 -0.32543,-0.04563 -0.43764,-0.07606 -0.10099,-0.04057 -0.17393,-0.09127 -0.21882,-0.152113 -0.0337,-0.06085 -0.0505,-0.13183 -0.0505,-0.212957 V 45.329269 c 0,-0.425915 0.12344,-0.730141 0.37031,-0.912676 0.24688,-0.182535 0.52181,-0.273802 0.82479,-0.273802 h 1.75057 c 0.35909,0 0.6733,0.03042 0.94262,0.09127 0.26932,0.06085 0.50497,0.157183 0.70696,0.289014 0.20199,0.131831 0.37031,0.299155 0.50497,0.501972 0.13466,0.202817 0.25249,0.441127 0.35348,0.714929 l 5.25383,14.252945 h 0.0842 l 5.50631,-14.207312 c 0.12344,-0.304224 0.2581,-0.562816 0.40398,-0.775773 0.14588,-0.212958 0.30298,-0.380282 0.4713,-0.501972 0.17955,-0.13183 0.37593,-0.223098 0.58914,-0.273803 0.21321,-0.06085 0.46009,-0.09127 0.74063,-0.09127 h 1.83473 c 0.16833,0 0.32543,0.02535 0.47131,0.07605 0.1571,0.04057 0.28615,0.111549 0.38714,0.212957 0.11222,0.09127 0.20199,0.212958 0.26932,0.36507 0.0673,0.141972 0.101,0.319437 0.101,0.532394 z m 17.3395,-7.423093 c 0,0.395493 -0.11221,0.679437 -0.33664,0.85183 -0.21321,0.162254 -0.46009,0.243381 -0.74063,0.243381 h -9.93113 c 0,0.760562 0.0842,1.445069 0.25249,2.053519 0.16832,0.60845 0.44886,1.130703 0.84162,1.566759 0.39275,0.436055 0.90334,0.770703 1.53175,1.003943 0.62841,0.233239 1.39709,0.349859 2.30604,0.349859 0.71819,0 1.35782,-0.05071 1.9189,-0.152113 0.56108,-0.111549 1.04361,-0.233239 1.44758,-0.36507 0.4152,-0.131831 0.75185,-0.248451 1.00995,-0.349859 0.26932,-0.111549 0.47131,-0.167324 0.60597,-0.167324 0.0785,0 0.14588,0.02028 0.20199,0.06085 0.0673,0.03043 0.11782,0.08112 0.15149,0.152113 0.0337,0.07098 0.0561,0.172394 0.0673,0.304225 0.0225,0.12169 0.0337,0.273802 0.0337,0.456337 0,0.131831 -0.006,0.248451 -0.0168,0.349859 -0.0112,0.09127 -0.028,0.177465 -0.0505,0.258592 -0.0112,0.07098 -0.0393,0.136901 -0.0842,0.197746 -0.0337,0.06085 -0.0842,0.12169 -0.15149,0.182535 -0.0561,0.05071 -0.23568,0.141971 -0.53864,0.273802 -0.30298,0.12169 -0.69574,0.243381 -1.17827,0.36507 -0.48253,0.12169 -1.04361,0.228169 -1.68324,0.319437 -0.62841,0.101409 -1.30171,0.152113 -2.01989,0.152113 -1.2456,0 -2.33971,-0.157183 -3.28232,-0.47155 -0.93139,-0.314366 -1.71691,-0.780844 -2.35654,-1.399434 -0.63963,-0.618592 -1.12216,-1.394365 -1.44759,-2.327322 -0.32543,-0.932958 -0.48814,-2.018026 -0.48814,-3.255208 0,-1.176337 0.16832,-2.230984 0.50497,-3.163941 0.33665,-0.943099 0.81918,-1.739155 1.44759,-2.388168 0.63963,-0.659154 1.40831,-1.161126 2.30604,-1.505914 0.89773,-0.354929 1.90207,-0.532393 3.01301,-0.532393 1.18949,0 2.19943,0.172394 3.02983,0.517182 0.84162,0.344789 1.53175,0.811267 2.07039,1.399436 0.53864,0.578027 0.9314,1.262534 1.17827,2.053519 0.25809,0.780845 0.38714,1.617463 0.38714,2.509857 z m -2.79418,-0.745351 c 0.0337,-1.318309 -0.29176,-2.352674 -0.97628,-3.103096 -0.67329,-0.750422 -1.67763,-1.125633 -3.013,-1.125633 -0.68452,0 -1.28488,0.11662 -1.80107,0.349859 -0.51619,0.233239 -0.94823,0.542535 -1.2961,0.927887 -0.34787,0.385351 -0.61718,0.836619 -0.80795,1.353801 -0.19077,0.507042 -0.29737,1.039436 -0.31982,1.597182 z m 14.71154,7.179712 c 0,0.294084 -0.0224,0.527323 -0.0673,0.699717 -0.0449,0.172395 -0.1122,0.299155 -0.20199,0.380282 -0.0898,0.08112 -0.22443,0.157183 -0.40398,0.228168 -0.17955,0.07099 -0.38715,0.12676 -0.6228,0.167324 -0.22443,0.05071 -0.4657,0.09127 -0.72379,0.12169 -0.2581,0.03043 -0.5162,0.04564 -0.77429,0.04564 -0.78551,0 -1.45881,-0.09127 -2.0199,-0.273803 -0.56108,-0.192676 -1.02116,-0.476619 -1.38025,-0.85183 -0.35909,-0.385352 -0.6228,-0.867042 -0.79113,-1.445069 -0.1571,-0.588168 -0.23565,-1.277745 -0.23565,-2.06873 v -8.00112 h -2.12089 c -0.16832,0 -0.30298,-0.08112 -0.40398,-0.24338 -0.10099,-0.162254 -0.15149,-0.425915 -0.15149,-0.790985 0,-0.192676 0.0112,-0.35493 0.0337,-0.486761 0.0337,-0.131831 0.0729,-0.238309 0.11782,-0.319436 0.0449,-0.09127 0.10098,-0.152113 0.16833,-0.182535 0.0786,-0.04057 0.16272,-0.06085 0.25249,-0.06085 h 2.10405 v -3.255208 c 0,-0.07099 0.0168,-0.136902 0.0505,-0.197746 0.0449,-0.06085 0.11781,-0.11155 0.21882,-0.152113 0.11221,-0.05071 0.25809,-0.08619 0.43764,-0.106478 0.17955,-0.02028 0.40398,-0.03042 0.6733,-0.03042 0.28054,0 0.51058,0.01014 0.69013,0.03042 0.17954,0.02028 0.31981,0.05577 0.42081,0.106478 0.10099,0.04057 0.17393,0.09127 0.21882,0.152113 0.0449,0.06085 0.0673,0.12676 0.0673,0.197746 v 3.255208 h 3.88829 c 0.0898,0 0.16832,0.02028 0.23565,0.06085 0.0673,0.03043 0.12344,0.09127 0.16833,0.182535 0.0561,0.08112 0.0954,0.187605 0.11782,0.319436 0.0225,0.131831 0.0337,0.294085 0.0337,0.486761 0,0.36507 -0.0505,0.628731 -0.15149,0.790985 -0.101,0.162254 -0.23566,0.24338 -0.40398,0.24338 h -3.88829 v 7.63605 c 0,0.943097 0.15149,1.658026 0.45447,2.144786 0.31421,0.476619 0.86968,0.714929 1.66641,0.714929 0.2581,0 0.48814,-0.02028 0.69013,-0.06085 0.20199,-0.05071 0.38154,-0.101408 0.53864,-0.152113 0.1571,-0.05071 0.29176,-0.09634 0.40398,-0.136901 0.11221,-0.05071 0.21321,-0.07605 0.30298,-0.07605 0.0561,0 0.10663,0.01521 0.15149,0.04564 0.0561,0.02028 0.0954,0.06591 0.11783,0.1369 0.0337,0.07099 0.0617,0.167324 0.0842,0.289014 0.0225,0.12169 0.0337,0.273803 0.0337,0.456338 z m 14.66104,1.019153 c 0,0.12169 -0.0449,0.212958 -0.13466,0.273803 -0.0898,0.06085 -0.21321,0.106479 -0.37031,0.136902 -0.1571,0.03043 -0.38714,0.04564 -0.69013,0.04564 -0.29176,0 -0.52741,-0.01521 -0.70696,-0.04564 -0.16833,-0.03043 -0.29177,-0.07606 -0.37032,-0.136902 -0.0786,-0.06085 -0.11782,-0.152113 -0.11782,-0.273803 V 62.09207 c -0.66208,0.638873 -1.40271,1.135774 -2.22188,1.490704 -0.80796,0.35493 -1.66641,0.532394 -2.57536,0.532394 -0.79673,0 -1.52053,-0.09634 -2.17139,-0.289015 -0.63963,-0.182535 -1.18948,-0.451266 -1.64957,-0.806196 -0.44887,-0.35493 -0.80235,-0.790985 -1.06045,-1.308167 -0.24687,-0.517184 -0.37031,-1.105351 -0.37031,-1.764506 0,-0.770704 0.17394,-1.439998 0.52181,-2.007886 0.34787,-0.567887 0.84723,-1.039436 1.49808,-1.414646 0.65085,-0.375211 1.44759,-0.654085 2.39021,-0.83662 0.94261,-0.192676 2.00305,-0.289013 3.18132,-0.289013 h 2.08722 v -1.064788 c 0,-0.527323 -0.0617,-0.993801 -0.18515,-1.399435 -0.12344,-0.405634 -0.32543,-0.740281 -0.60597,-1.003943 -0.26932,-0.273802 -0.6228,-0.476619 -1.06044,-0.60845 -0.43765,-0.141972 -0.97628,-0.212958 -1.61591,-0.212958 -0.68452,0 -1.30171,0.07606 -1.85157,0.22817 -0.53864,0.141972 -1.01556,0.304224 -1.43076,0.486759 -0.40397,0.172394 -0.74623,0.334648 -1.02677,0.486761 -0.26932,0.141972 -0.47131,0.212957 -0.60597,0.212957 -0.0898,0 -0.16833,-0.02028 -0.23566,-0.06085 -0.0673,-0.04057 -0.12904,-0.101408 -0.18515,-0.182535 -0.0449,-0.08112 -0.0785,-0.182536 -0.101,-0.304225 -0.0225,-0.131831 -0.0337,-0.273802 -0.0337,-0.425915 0,-0.253521 0.0168,-0.451267 0.0505,-0.593239 0.0449,-0.152112 0.14025,-0.294084 0.28615,-0.425915 0.1571,-0.131831 0.42081,-0.283944 0.79112,-0.456337 0.37031,-0.182535 0.79673,-0.344789 1.27926,-0.486761 0.48253,-0.152112 1.00995,-0.273802 1.58225,-0.36507 0.57231,-0.101408 1.15022,-0.152112 1.73374,-0.152112 1.0885,0 2.01428,0.111549 2.77735,0.334647 0.76307,0.223098 1.38026,0.552676 1.85157,0.988731 0.47131,0.425915 0.81357,0.95831 1.02678,1.597182 0.21321,0.638872 0.31981,1.384224 0.31981,2.236055 z m -2.76052,-6.251824 h -2.37337 c -0.76307,0 -1.42514,0.06085 -1.98622,0.182535 -0.56108,0.111548 -1.02678,0.283943 -1.39709,0.517182 -0.37031,0.223098 -0.64524,0.496901 -0.82479,0.821408 -0.16833,0.314366 -0.25249,0.679436 -0.25249,1.09521 0,0.709858 0.24688,1.277745 0.74063,1.703661 0.50497,0.415774 1.20632,0.623661 2.10405,0.623661 0.72941,0 1.4027,-0.167324 2.01989,-0.501972 0.62841,-0.334647 1.28488,-0.84676 1.96939,-1.536337 z m -65.62205,-1.280701 c 0,0.395493 -0.11221,0.679437 -0.33664,0.85183 -0.21321,0.162254 -0.46009,0.243381 -0.74063,0.243381 h -9.93113 c 0,0.760562 0.0842,1.445069 0.25249,2.053519 0.16832,0.60845 0.44886,1.130703 0.84162,1.566759 0.39275,0.436055 0.90334,0.770703 1.53175,1.003943 0.62841,0.233239 1.39709,0.349859 2.30604,0.349859 0.71819,0 1.35782,-0.05071 1.9189,-0.152113 0.56108,-0.111549 1.04361,-0.233239 1.44758,-0.36507 0.4152,-0.131831 0.75185,-0.248451 1.00995,-0.349859 0.26932,-0.111549 0.47131,-0.167324 0.60597,-0.167324 0.0785,0 0.14588,0.02028 0.20199,0.06085 0.0673,0.03043 0.11782,0.08112 0.15149,0.152113 0.0337,0.07098 0.0561,0.172394 0.0673,0.304225 0.0225,0.12169 0.0337,0.273802 0.0337,0.456337 0,0.131831 -0.006,0.248451 -0.0168,0.349859 -0.0112,0.09127 -0.028,0.177465 -0.0505,0.258592 -0.0112,0.07098 -0.0393,0.136901 -0.0842,0.197746 -0.0337,0.06085 -0.0842,0.12169 -0.15149,0.182535 -0.0561,0.05071 -0.23568,0.141971 -0.53864,0.273802 -0.30298,0.12169 -0.69574,0.243381 -1.17827,0.36507 -0.48253,0.12169 -1.04361,0.228169 -1.68324,0.319437 -0.62841,0.101409 -1.30171,0.152113 -2.01989,0.152113 -1.2456,0 -2.33971,-0.157183 -3.28232,-0.47155 -0.93139,-0.314366 -1.71691,-0.780844 -2.35654,-1.399434 -0.63963,-0.618592 -1.12216,-1.394365 -1.44759,-2.327322 -0.32543,-0.932958 -0.48814,-2.018026 -0.48814,-3.255208 0,-1.176337 0.16832,-2.230984 0.50497,-3.163941 0.33665,-0.943099 0.81918,-1.739155 1.44759,-2.388168 0.63963,-0.659154 1.40831,-1.161126 2.30604,-1.505914 0.89773,-0.354929 1.90207,-0.532393 3.01301,-0.532393 1.18949,0 2.19943,0.172394 3.02983,0.517182 0.84162,0.344789 1.53175,0.811267 2.07039,1.399436 0.53864,0.578027 0.9314,1.262534 1.17827,2.053519 0.25809,0.780845 0.38714,1.617463 0.38714,2.509857 z m -2.79418,-0.745351 c 0.0337,-1.318309 -0.29176,-2.352674 -0.97628,-3.103096 -0.67329,-0.750422 -1.67763,-1.125633 -3.013,-1.125633 -0.68452,0 -1.28488,0.11662 -1.80107,0.349859 -0.51619,0.233239 -0.94823,0.542535 -1.2961,0.927887 -0.34787,0.385351 -0.61718,0.836619 -0.80795,1.353801 -0.19077,0.507042 -0.29737,1.039436 -0.31982,1.597182 z"
       id="text19"
       aria-label="ReMeta"
       sodipodi:nodetypes="cssssccccccccscscccsccssscsscccscsccscccscccccscccsccscccsssccsccssccccccsscccccssccscccssssssssccccsccsscccccscscsssscccscscscccscscscssscccscccssccsssccccssscsscccscssscccscsccssscsscscccssscscscscsccsccscsscssccscccssscscssccscccssccscccccsscssscscccscscccsscsccssscccscccscccscscscssscccscccssccsssccc" /><path
       style="fill:none;fill-opacity:1;stroke:#ffffff;stroke-width:2.50117;stroke-dasharray:none;stroke-opacity:1"
       id="path19"
       d="m 208.52784,27.497333 a 4.4952226,7.3454909 0 0 1 -0.32091,-3.11675"
       sodipodi:type="arc"
       sodipodi:arc-type="arc"
       sodipodi:start="2.7580748"
       sodipodi:end="3.1917365"
       sodipodi:ry="7.3454909"
       sodipodi:rx="4.4952226"
       sodipodi:cy="24.74876"
       sodipodi:cx="212.6965"
       transform="matrix(0.98915339,0.14688628,-0.10405937,0.99457109,0,0)"
       sodipodi:open="true" /><path
       sodipodi:type="star"
       style="fill:#050000;fill-opacity:1;stroke:none;stroke-width:4.50303;stroke-dasharray:none;stroke-opacity:1"
       id="path21"
       inkscape:flatsided="true"
       sodipodi:sides="3"
       sodipodi:cx="238.01851"
       sodipodi:cy="79.894936"
       sodipodi:r1="12.594174"
       sodipodi:r2="6.2970867"
       sodipodi:arg1="3.1415927"
       sodipodi:arg2="4.1887902"
       inkscape:rounded="0"
       inkscape:randomized="0"
       d="m 225.42433,79.894935 18.89127,-10.906874 0,21.81375 z"
       inkscape:transform-center-x="0.5102719"
       transform="matrix(0.16206567,0,0,0.19475235,166.50002,40.575641)" /><path
       style="fill:none;fill-opacity:1;stroke:#ffffff;stroke-width:2.50117;stroke-dasharray:none;stroke-opacity:1"
       id="path22"
       d="m 208.52784,27.497333 a 4.4952226,7.3454909 0 0 1 -0.32091,-3.11675"
       sodipodi:type="arc"
       sodipodi:arc-type="arc"
       sodipodi:start="2.7580748"
       sodipodi:end="3.1917365"
       sodipodi:ry="7.3454909"
       sodipodi:rx="4.4952226"
       sodipodi:cy="24.74876"
       sodipodi:cx="212.6965"
       transform="matrix(0.98915339,0.14688628,-0.10405937,0.99457109,0,0)"
       sodipodi:open="true" /><path
       sodipodi:type="star"
       style="fill:#050000;fill-opacity:1;stroke:none;stroke-width:4.50303;stroke-dasharray:none;stroke-opacity:1"
       id="path23"
       inkscape:flatsided="true"
       sodipodi:sides="3"
       sodipodi:cx="238.01851"
       sodipodi:cy="79.894936"
       sodipodi:r1="12.594174"
       sodipodi:r2="6.2970867"
       sodipodi:arg1="3.1415927"
       sodipodi:arg2="4.1887902"
       inkscape:rounded="0"
       inkscape:randomized="0"
       d="m 225.42433,79.894935 18.89127,-10.906874 0,21.81375 z"
       inkscape:transform-center-x="0.5102719"
       transform="matrix(0.16206567,0,0,0.19475235,166.50002,40.575641)" /><path
       style="fill:none;fill-opacity:1;stroke:#ffffff;stroke-width:2.50117;stroke-dasharray:none;stroke-opacity:1"
       id="path25"
       d="m 166.91924,33.634012 a 4.4952226,7.3454909 0 0 1 -0.32091,-3.11675"
       sodipodi:type="arc"
       sodipodi:arc-type="arc"
       sodipodi:start="2.7580748"
       sodipodi:end="3.1917365"
       sodipodi:ry="7.3454909"
       sodipodi:rx="4.4952226"
       sodipodi:cy="30.885439"
       sodipodi:cx="171.08791"
       transform="matrix(0.98915339,0.14688628,-0.10405937,0.99457109,0,0)"
       sodipodi:open="true" /><path
       sodipodi:type="star"
       style="fill:#050000;fill-opacity:1;stroke:none;stroke-width:4.50303;stroke-dasharray:none;stroke-opacity:1"
       id="path26"
       inkscape:flatsided="true"
       sodipodi:sides="3"
       sodipodi:cx="238.01851"
       sodipodi:cy="79.894936"
       sodipodi:r1="12.594174"
       sodipodi:r2="6.2970867"
       sodipodi:arg1="3.1415927"
       sodipodi:arg2="4.1887902"
       inkscape:rounded="0"
       inkscape:randomized="0"
       d="m 225.42433,79.894935 18.89127,-10.906874 0,21.81375 z"
       inkscape:transform-center-x="0.5102719"
       transform="matrix(0.16206567,0,0,0.19475235,124.70419,40.56728)" /><text
       xml:space="preserve"
       style="font-size:30.9371px;line-height:0.8;font-family:Calibri;-inkscape-font-specification:'Calibri, Normal';text-align:end;writing-mode:lr-tb;direction:ltr;text-anchor:end;fill:#050000;stroke-width:0.799999"
       x="291.35233"
       y="63.81599"
       id="text1"><tspan
         sodipodi:role="line"
         id="tspan1"
         style="stroke-width:0.8"
         x="291.35233"
         y="63.81599">API</tspan></text></g></svg>
